<svg width="141" height="141" viewBox="0 0 141 141" fill="none" xmlns="http://www.w3.org/2000/svg">
<path d="M30.8437 17.625C23.5955 17.625 17.625 23.5955 17.625 30.8438C17.625 38.092 23.5955 44.0625 30.8437 44.0625C38.092 44.0625 44.0625 38.092 44.0625 30.8438C44.0625 23.5955 38.092 17.625 30.8437 17.625ZM83.4455 21.6171C82.0639 21.639 80.6843 21.7331 79.3125 21.8991C68.4335 23.1725 58.2815 28.7464 50.5353 36.4926C45.0936 41.9123 40.586 49.7113 39.1055 64.1682C39.0531 64.3039 39.0075 64.4422 38.9689 64.5824V64.719C38.857 64.9413 38.7641 65.1728 38.6913 65.4108C38.6737 65.5121 38.7089 65.565 38.6913 65.684V66.2348C38.7307 66.8057 38.8709 67.3651 39.1055 67.8871C39.3258 71.8483 39.881 75.8933 41.3086 79.7311H41.172C41.2381 80.11 41.6875 82.0003 41.7228 83.8598C41.7404 85.2565 41.2381 86.5299 41.172 86.8913C38.4842 89.557 35.2676 92.3462 32.2229 94.7388C29.1782 97.1314 26.5388 99.1979 24.6442 101.075H24.512C23.3794 102.268 22.5501 103.716 22.0938 105.296C21.6376 106.876 21.5678 108.543 21.8902 110.156C22.56 113.241 24.3313 115.906 26.7063 118.281C29.068 120.639 31.7514 122.392 34.8314 123.097C37.9114 123.802 41.6479 122.895 44.0581 120.485C45.988 118.555 47.8475 115.836 50.2533 112.774C52.6635 109.707 55.3998 106.385 58.1008 103.683C57.7924 103.992 59.1363 103.274 60.8591 103.274C62.2515 103.274 63.4059 103.406 64.296 103.547C64.5251 103.582 64.9878 103.666 65.1244 103.683C68.9622 105.111 73.0116 105.649 76.9684 105.887C77.0168 105.887 77.0565 106.028 77.105 106.028C77.4193 106.107 77.7409 106.151 78.0699 106.16C78.2041 106.213 78.3409 106.261 78.4797 106.301H79.3125C79.5886 106.28 79.8647 106.235 80.1409 106.164C80.3127 106.147 80.3788 106.041 80.5507 106.023H80.6917C93.9589 104.922 102.855 100.119 108.504 94.4568C116.25 86.715 121.824 76.5586 123.102 65.684C124.375 54.8005 120.982 43.1857 111.394 33.5977C103.014 25.217 93.082 21.551 83.4455 21.6171ZM30.5262 26.4375C33.0069 26.4375 34.9324 28.3674 34.9324 30.8438C34.9324 33.3201 33.0025 35.25 30.5262 35.25C28.0499 35.25 26.1199 33.3201 26.1199 30.8438C26.1199 28.3674 28.0499 26.4375 30.5262 26.4375ZM83.4455 30.4296C90.8789 30.293 98.3299 32.9279 105.199 39.7928C113.064 47.6404 115.29 56.2282 114.289 64.7146C113.289 73.201 108.83 81.7404 102.304 88.2616C97.9201 92.6502 91.5531 96.0783 80.4141 97.0741L47.918 64.578C49.209 52.1524 52.2713 47.4201 56.8671 42.8243C63.3883 36.3031 71.7734 31.703 80.2775 30.7072C81.3438 30.5838 82.3792 30.4472 83.4455 30.4296ZM49.9801 79.3125L65.6751 94.871C64.0833 94.5944 62.4704 94.4572 60.8547 94.4612C58.1713 94.4744 54.7653 94.633 51.91 97.4883C48.8739 100.577 46.0225 103.842 43.3707 107.266C40.9076 110.394 38.7221 113.289 37.7263 114.285C37.2064 114.805 37.4619 114.717 36.7569 114.563C36.0519 114.408 34.6243 113.531 33.0425 111.945C31.4915 110.399 30.7204 108.967 30.5617 108.231C30.4075 107.49 30.2533 107.693 30.7027 107.261C31.6281 106.336 34.4348 104.098 37.5853 101.621C40.7358 99.145 44.3313 96.2457 47.4994 93.082C50.5485 90.0373 50.5837 86.5079 50.5309 83.7188C50.4956 81.6038 50.1696 80.3612 49.9801 79.3125Z" fill="white"/>
</svg>
