<svg width="24" height="24" viewBox="0 0 24 24" fill="none" xmlns="http://www.w3.org/2000/svg">
<path d="M3.5625 0.75C2.02031 0.75 0.75 2.02031 0.75 3.5625C0.75 5.10469 2.02031 6.375 3.5625 6.375C5.10469 6.375 6.375 5.10469 6.375 3.5625C6.375 2.02031 5.10469 0.75 3.5625 0.75ZM14.7544 1.59938C14.4604 1.60404 14.1669 1.62407 13.875 1.65937C11.5603 1.93031 9.40031 3.11625 7.75219 4.76437C6.59437 5.9175 5.63531 7.57687 5.32031 10.6528C5.30918 10.6817 5.29948 10.7111 5.29125 10.7409V10.77C5.26744 10.8173 5.24768 10.8665 5.23219 10.9172C5.22844 10.9388 5.23594 10.95 5.23219 10.9753V11.0925C5.24058 11.214 5.27041 11.333 5.32031 11.4441C5.36719 12.2869 5.48531 13.1475 5.78906 13.9641H5.76C5.77406 14.0447 5.86969 14.4469 5.87719 14.8425C5.88094 15.1397 5.77406 15.4106 5.76 15.4875C5.18812 16.0547 4.50375 16.6481 3.85594 17.1572C3.20813 17.6663 2.64656 18.1059 2.24344 18.5053H2.21531C1.97434 18.7591 1.79789 19.0671 1.70082 19.4034C1.60374 19.7396 1.58889 20.0943 1.6575 20.4375C1.8 21.0938 2.17687 21.6609 2.68219 22.1663C3.18469 22.6678 3.75563 23.0409 4.41094 23.1909C5.06625 23.3409 5.86125 23.1478 6.37406 22.635C6.78469 22.2244 7.18031 21.6459 7.69219 20.9944C8.205 20.3419 8.78719 19.635 9.36187 19.0603C9.29625 19.1259 9.58219 18.9731 9.94875 18.9731C10.245 18.9731 10.4906 19.0012 10.68 19.0312C10.7288 19.0387 10.8272 19.0566 10.8562 19.0603C11.6728 19.3641 12.5344 19.4784 13.3763 19.5291C13.3866 19.5291 13.395 19.5591 13.4053 19.5591C13.4722 19.5759 13.5406 19.5853 13.6106 19.5872C13.6392 19.5986 13.6683 19.6086 13.6978 19.6172H13.875C13.9338 19.6128 13.9925 19.6031 14.0512 19.5881C14.0878 19.5844 14.1019 19.5619 14.1384 19.5581H14.1684C16.9912 19.3237 18.8841 18.3019 20.0859 17.0972C21.7341 15.45 22.92 13.2891 23.1919 10.9753C23.4628 8.65969 22.7409 6.18844 20.7009 4.14844C18.9178 2.36531 16.8047 1.58531 14.7544 1.59938ZM3.5625 2.625C4.09031 2.625 4.5 3.03562 4.5 3.5625C4.5 4.08938 4.08938 4.5 3.5625 4.5C3.03562 4.5 2.625 4.08938 2.625 3.5625C2.625 3.03562 3.03562 2.625 3.5625 2.625ZM14.7544 3.47438C16.3359 3.44531 17.9212 4.00594 19.3828 5.46656C21.0562 7.13625 21.5297 8.96344 21.3169 10.7691C21.1041 12.5747 20.1553 14.3916 18.7669 15.7791C17.8341 16.7128 16.4794 17.4422 14.1094 17.6541L7.19531 10.74C7.47 8.09625 8.12156 7.08938 9.09937 6.11156C10.4869 4.72406 12.2709 3.74531 14.0803 3.53344C14.3072 3.50719 14.5275 3.47813 14.7544 3.47438ZM7.63406 13.875L10.9734 17.1853C10.6348 17.1265 10.2916 17.0973 9.94781 17.0981C9.37687 17.1009 8.65219 17.1347 8.04469 17.7422C7.39869 18.3993 6.79202 19.0939 6.22781 19.8225C5.70375 20.4881 5.23875 21.1041 5.02688 21.3159C4.91625 21.4266 4.97062 21.4078 4.82062 21.375C4.67062 21.3422 4.36688 21.1556 4.03031 20.8181C3.70031 20.4891 3.53625 20.1844 3.5025 20.0278C3.46969 19.8703 3.43687 19.9134 3.5325 19.8216C3.72937 19.6247 4.32656 19.1484 4.99687 18.6216C5.66719 18.0947 6.43219 17.4778 7.10625 16.8047C7.755 16.1569 7.7625 15.4059 7.75125 14.8125C7.74375 14.3625 7.67438 14.0981 7.63406 13.875Z" fill="black"/>
</svg>
